<svg xmlns="http://www.w3.org/2000/svg" xmlns:xlink="http://www.w3.org/1999/xlink" width="2000" zoomAndPan="magnify" viewBox="0 0 1500 1499.999933" height="2000" preserveAspectRatio="xMidYMid meet" version="1.0"><defs><clipPath id="cfbbc78d85"><path d="M 557.625 251.164062 L 942.375 251.164062 L 942.375 851 L 557.625 851 Z M 557.625 251.164062 " clip-rule="nonzero"/></clipPath><clipPath id="9cc7551227"><path d="M 307.078125 153.472656 L 1192.828125 153.472656 L 1192.828125 1346.722656 L 307.078125 1346.722656 Z M 307.078125 153.472656 " clip-rule="nonzero"/></clipPath></defs><g clip-path="url(#cfbbc78d85)"><path fill="#33373d" d="M 760.484375 255.824219 C 759.457031 249.933594 750.902344 250.09375 749.949219 255.996094 C 716.851562 460.972656 563.878906 512.671875 557.800781 649.988281 C 553.277344 752.261719 631.484375 841.660156 733.503906 850.152344 C 847.175781 859.609375 942.351562 770.15625 942.351562 658.46875 C 942.351562 517.933594 796.261719 460.972656 760.484375 255.824219 Z M 849.035156 750.421875 C 820.191406 792.402344 764.847656 810.144531 756.039062 798.050781 C 743.214844 780.441406 784.558594 778.789062 813.402344 736.8125 C 842.246094 694.832031 827.636719 650.988281 852.1875 656.074219 C 877.300781 661.273438 877.878906 708.441406 849.035156 750.421875 Z M 873.359375 625.660156 C 862.253906 625.660156 843.203125 618.703125 843.203125 606.675781 C 843.203125 594.648438 842.429688 575.402344 853.535156 575.402344 C 864.636719 575.402344 878.671875 580.820312 883.410156 591.875 C 890.109375 607.511719 884.460938 625.660156 873.359375 625.660156 Z M 873.359375 625.660156 " fill-opacity="1" fill-rule="nonzero"/></g><g clip-path="url(#9cc7551227)"><path fill="#000000" d="M 1102.535156 153.472656 L 397.382812 153.472656 C 347.546875 153.472656 307.152344 193.882812 307.152344 243.726562 L 307.152344 1256.46875 C 307.152344 1306.3125 347.546875 1346.722656 397.382812 1346.722656 L 1102.535156 1346.722656 C 1152.363281 1346.722656 1192.765625 1306.3125 1192.765625 1256.46875 L 1192.765625 243.726562 C 1192.765625 193.882812 1152.363281 153.472656 1102.535156 153.472656 Z M 1122.375 895.84375 C 1122.375 901.039062 1118.167969 905.253906 1112.96875 905.253906 L 389.5625 905.253906 C 384.371094 905.253906 380.15625 901.039062 380.15625 895.84375 L 380.15625 233.871094 C 380.15625 228.671875 384.371094 224.460938 389.5625 224.460938 L 1112.96875 224.460938 C 1118.167969 224.460938 1122.375 228.671875 1122.375 233.871094 Z M 1122.375 895.84375 " fill-opacity="1" fill-rule="nonzero"/></g><path fill="#adadad" d="M 1127.738281 1094.90625 C 1127.738281 1099.992188 1123.613281 1104.128906 1118.519531 1104.128906 L 386.929688 1104.128906 C 381.859375 1104.128906 377.503906 1100.148438 377.414062 1095.078125 C 377.3125 1089.902344 381.480469 1085.683594 386.632812 1085.683594 L 1118.519531 1085.683594 C 1123.613281 1085.683594 1127.738281 1089.8125 1127.738281 1094.90625 Z M 1127.738281 1094.90625 " fill-opacity="1" fill-rule="nonzero"/><path fill="#ffffff" d="M 655.773438 1094.902344 C 655.773438 1099.996094 651.644531 1104.125 646.554688 1104.125 L 386.925781 1104.125 C 381.859375 1104.125 377.503906 1100.148438 377.414062 1095.078125 C 377.316406 1089.90625 381.480469 1085.683594 386.632812 1085.683594 L 646.554688 1085.683594 C 651.644531 1085.683594 655.773438 1089.8125 655.773438 1094.902344 Z M 655.773438 1094.902344 " fill-opacity="1" fill-rule="nonzero"/><path fill="#ffffff" d="M 658.113281 1080.8125 C 658.585938 1081.285156 659.035156 1081.78125 659.457031 1082.296875 C 659.882812 1082.8125 660.28125 1083.351562 660.652344 1083.90625 C 661.023438 1084.464844 661.367188 1085.035156 661.679688 1085.625 C 661.996094 1086.214844 662.28125 1086.820312 662.539062 1087.4375 C 662.792969 1088.054688 663.019531 1088.683594 663.214844 1089.324219 C 663.40625 1089.964844 663.570312 1090.613281 663.699219 1091.269531 C 663.832031 1091.925781 663.929688 1092.585938 663.992188 1093.25 C 664.058594 1093.917969 664.09375 1094.585938 664.09375 1095.253906 C 664.09375 1095.921875 664.058594 1096.589844 663.992188 1097.253906 C 663.929688 1097.921875 663.832031 1098.582031 663.699219 1099.238281 C 663.570312 1099.894531 663.40625 1100.542969 663.214844 1101.179688 C 663.019531 1101.820312 662.792969 1102.449219 662.539062 1103.066406 C 662.28125 1103.6875 661.996094 1104.289062 661.679688 1104.878906 C 661.367188 1105.46875 661.023438 1106.042969 660.652344 1106.597656 C 660.28125 1107.15625 659.882812 1107.691406 659.457031 1108.207031 C 659.035156 1108.726562 658.585938 1109.21875 658.113281 1109.695312 C 657.640625 1110.167969 657.144531 1110.613281 656.628906 1111.039062 C 656.109375 1111.464844 655.574219 1111.863281 655.019531 1112.234375 C 654.460938 1112.605469 653.890625 1112.949219 653.300781 1113.261719 C 652.710938 1113.578125 652.105469 1113.863281 651.488281 1114.121094 C 650.871094 1114.375 650.242188 1114.601562 649.601562 1114.796875 C 648.960938 1114.988281 648.3125 1115.152344 647.660156 1115.28125 C 647.003906 1115.414062 646.34375 1115.511719 645.675781 1115.578125 C 645.011719 1115.640625 644.34375 1115.675781 643.675781 1115.675781 C 643.007812 1115.675781 642.339844 1115.640625 641.675781 1115.578125 C 641.007812 1115.511719 640.347656 1115.414062 639.691406 1115.28125 C 639.035156 1115.152344 638.390625 1114.988281 637.75 1114.796875 C 637.109375 1114.601562 636.480469 1114.375 635.863281 1114.121094 C 635.246094 1113.863281 634.640625 1113.578125 634.050781 1113.261719 C 633.460938 1112.949219 632.890625 1112.605469 632.332031 1112.234375 C 631.777344 1111.863281 631.242188 1111.464844 630.722656 1111.039062 C 630.207031 1110.613281 629.710938 1110.167969 629.238281 1109.695312 C 628.765625 1109.21875 628.316406 1108.726562 627.894531 1108.207031 C 627.46875 1107.691406 627.070312 1107.15625 626.699219 1106.597656 C 626.328125 1106.042969 625.984375 1105.46875 625.667969 1104.878906 C 625.355469 1104.289062 625.070312 1103.6875 624.8125 1103.066406 C 624.558594 1102.449219 624.332031 1101.820312 624.136719 1101.179688 C 623.945312 1100.542969 623.78125 1099.894531 623.652344 1099.238281 C 623.519531 1098.582031 623.421875 1097.921875 623.355469 1097.253906 C 623.292969 1096.589844 623.257812 1095.921875 623.257812 1095.253906 C 623.257812 1094.585938 623.292969 1093.917969 623.355469 1093.25 C 623.421875 1092.585938 623.519531 1091.925781 623.652344 1091.269531 C 623.78125 1090.613281 623.945312 1089.964844 624.136719 1089.324219 C 624.332031 1088.683594 624.558594 1088.054688 624.8125 1087.4375 C 625.070312 1086.820312 625.355469 1086.214844 625.667969 1085.625 C 625.984375 1085.035156 626.328125 1084.464844 626.699219 1083.90625 C 627.070312 1083.351562 627.46875 1082.816406 627.894531 1082.296875 C 628.316406 1081.78125 628.765625 1081.285156 629.238281 1080.8125 C 629.710938 1080.339844 630.207031 1079.890625 630.722656 1079.464844 C 631.242188 1079.042969 631.777344 1078.644531 632.332031 1078.273438 C 632.890625 1077.902344 633.460938 1077.558594 634.050781 1077.242188 C 634.640625 1076.925781 635.246094 1076.640625 635.863281 1076.386719 C 636.480469 1076.128906 637.109375 1075.90625 637.75 1075.710938 C 638.390625 1075.515625 639.035156 1075.355469 639.691406 1075.222656 C 640.347656 1075.09375 641.007812 1074.996094 641.675781 1074.929688 C 642.339844 1074.863281 643.007812 1074.832031 643.675781 1074.832031 C 644.34375 1074.832031 645.011719 1074.863281 645.675781 1074.929688 C 646.34375 1074.996094 647.003906 1075.09375 647.660156 1075.222656 C 648.316406 1075.355469 648.960938 1075.515625 649.601562 1075.710938 C 650.242188 1075.90625 650.871094 1076.128906 651.488281 1076.386719 C 652.105469 1076.640625 652.710938 1076.925781 653.300781 1077.242188 C 653.890625 1077.558594 654.460938 1077.902344 655.019531 1078.273438 C 655.574219 1078.644531 656.109375 1079.042969 656.628906 1079.464844 C 657.144531 1079.890625 657.640625 1080.339844 658.113281 1080.8125 Z M 658.113281 1080.8125 " fill-opacity="1" fill-rule="nonzero"/><path fill="#ffffff" d="M 897.667969 1199.003906 C 897.667969 1197.214844 899.625 1196.109375 901.15625 1197.035156 L 938.957031 1219.851562 L 938.957031 1200.296875 C 938.957031 1197.332031 941.359375 1194.933594 944.320312 1194.933594 C 945.800781 1194.933594 947.140625 1195.535156 948.113281 1196.5 C 949.085938 1197.472656 949.691406 1198.8125 949.691406 1200.296875 L 949.691406 1247.15625 C 949.691406 1250.125 947.28125 1252.527344 944.320312 1252.527344 C 941.359375 1252.527344 938.957031 1250.125 938.957031 1247.15625 L 938.957031 1227.601562 L 901.15625 1250.421875 C 899.621094 1251.34375 897.667969 1250.242188 897.667969 1248.453125 Z M 897.667969 1199.003906 " fill-opacity="1" fill-rule="nonzero"/><path fill="#ffffff" d="M 601.644531 1199.003906 C 601.644531 1197.214844 599.6875 1196.109375 598.15625 1197.035156 L 560.351562 1219.851562 L 560.351562 1200.296875 C 560.351562 1197.332031 557.953125 1194.933594 554.992188 1194.933594 C 553.511719 1194.933594 552.167969 1195.535156 551.199219 1196.5 C 550.226562 1197.472656 549.621094 1198.8125 549.621094 1200.296875 L 549.621094 1247.15625 C 549.621094 1250.125 552.03125 1252.527344 554.992188 1252.527344 C 557.953125 1252.527344 560.351562 1250.125 560.351562 1247.15625 L 560.351562 1227.601562 L 598.15625 1250.421875 C 599.6875 1251.34375 601.644531 1250.242188 601.644531 1248.453125 Z M 601.644531 1199.003906 " fill-opacity="1" fill-rule="nonzero"/><path fill="#ffffff" d="M 419.421875 990.789062 L 384.988281 990.789062 C 383.460938 990.789062 382.222656 989.550781 382.222656 988.023438 C 382.222656 986.496094 383.460938 985.257812 384.988281 985.257812 L 419.421875 985.257812 C 420.949219 985.257812 422.1875 986.496094 422.1875 988.023438 C 422.1875 989.550781 420.949219 990.789062 419.421875 990.789062 Z M 419.421875 990.789062 " fill-opacity="1" fill-rule="nonzero"/><path fill="#ffffff" d="M 419.421875 1003.738281 L 384.988281 1003.738281 C 383.460938 1003.738281 382.222656 1002.5 382.222656 1000.972656 C 382.222656 999.445312 383.460938 998.207031 384.988281 998.207031 L 419.421875 998.207031 C 420.949219 998.207031 422.1875 999.445312 422.1875 1000.972656 C 422.1875 1002.5 420.949219 1003.738281 419.421875 1003.738281 Z M 419.421875 1003.738281 " fill-opacity="1" fill-rule="nonzero"/><path fill="#ffffff" d="M 419.421875 1016.691406 L 384.988281 1016.691406 C 383.460938 1016.691406 382.222656 1015.453125 382.222656 1013.925781 C 382.222656 1012.398438 383.460938 1011.160156 384.988281 1011.160156 L 419.421875 1011.160156 C 420.949219 1011.160156 422.1875 1012.398438 422.1875 1013.925781 C 422.1875 1015.453125 420.949219 1016.691406 419.421875 1016.691406 Z M 419.421875 1016.691406 " fill-opacity="1" fill-rule="nonzero"/><path fill="#ffffff" d="M 1123.183594 1000.972656 C 1123.183594 1000.082031 1123.125 999.203125 1123.007812 998.34375 C 1122.917969 997.664062 1123.234375 997 1123.824219 996.65625 L 1126.90625 994.875 C 1127.601562 994.476562 1127.90625 993.640625 1127.652344 992.882812 C 1126.554688 989.617188 1124.8125 986.644531 1122.574219 984.121094 C 1122.050781 983.53125 1121.183594 983.40625 1120.503906 983.796875 L 1117.429688 985.574219 C 1116.835938 985.914062 1116.101562 985.855469 1115.558594 985.433594 C 1114.175781 984.363281 1112.644531 983.472656 1111.003906 982.800781 C 1110.371094 982.542969 1109.949219 981.933594 1109.949219 981.25 L 1109.949219 977.699219 C 1109.949219 976.898438 1109.382812 976.214844 1108.597656 976.054688 C 1106.96875 975.726562 1105.28125 975.554688 1103.554688 975.554688 C 1101.824219 975.554688 1100.140625 975.726562 1098.507812 976.054688 C 1097.726562 976.214844 1097.15625 976.898438 1097.15625 977.699219 L 1097.15625 981.253906 C 1097.15625 981.933594 1096.738281 982.542969 1096.105469 982.800781 C 1094.464844 983.476562 1092.933594 984.363281 1091.550781 985.433594 C 1091.007812 985.855469 1090.273438 985.914062 1089.679688 985.574219 L 1086.605469 983.796875 C 1085.925781 983.402344 1085.054688 983.53125 1084.53125 984.117188 C 1082.296875 986.640625 1080.554688 989.613281 1079.457031 992.882812 C 1079.203125 993.640625 1079.507812 994.476562 1080.203125 994.875 L 1083.285156 996.65625 C 1083.875 996.996094 1084.191406 997.660156 1084.101562 998.339844 C 1083.984375 999.199219 1083.925781 1000.078125 1083.925781 1000.972656 C 1083.925781 1001.867188 1083.984375 1002.746094 1084.101562 1003.609375 C 1084.191406 1004.285156 1083.875 1004.949219 1083.285156 1005.292969 L 1080.203125 1007.070312 C 1079.511719 1007.472656 1079.207031 1008.304688 1079.460938 1009.066406 C 1080.554688 1012.332031 1082.296875 1015.304688 1084.535156 1017.824219 C 1085.058594 1018.414062 1085.925781 1018.542969 1086.609375 1018.148438 L 1089.679688 1016.375 C 1090.273438 1016.03125 1091.007812 1016.09375 1091.550781 1016.511719 C 1092.933594 1017.582031 1094.464844 1018.472656 1096.105469 1019.144531 C 1096.738281 1019.402344 1097.15625 1020.011719 1097.15625 1020.695312 L 1097.15625 1024.25 C 1097.15625 1025.050781 1097.726562 1025.730469 1098.507812 1025.890625 C 1100.140625 1026.21875 1101.828125 1026.390625 1103.554688 1026.390625 C 1105.28125 1026.390625 1106.96875 1026.21875 1108.597656 1025.890625 C 1109.382812 1025.730469 1109.949219 1025.050781 1109.949219 1024.25 L 1109.949219 1020.695312 C 1109.949219 1020.011719 1110.371094 1019.402344 1111 1019.144531 C 1112.644531 1018.472656 1114.175781 1017.582031 1115.558594 1016.511719 C 1116.101562 1016.09375 1116.835938 1016.03125 1117.429688 1016.375 L 1120.503906 1018.148438 C 1121.183594 1018.542969 1122.050781 1018.414062 1122.574219 1017.824219 C 1124.8125 1015.300781 1126.554688 1012.332031 1127.648438 1009.066406 C 1127.90625 1008.304688 1127.601562 1007.472656 1126.90625 1007.070312 L 1123.824219 1005.292969 C 1123.234375 1004.953125 1122.917969 1004.285156 1123.007812 1003.605469 C 1123.125 1002.746094 1123.183594 1001.863281 1123.183594 1000.972656 Z M 1113.195312 1000.972656 C 1113.195312 1001.636719 1113.128906 1002.28125 1113 1002.910156 C 1112.574219 1004.988281 1111.480469 1006.828125 1109.949219 1008.1875 C 1108.988281 1009.039062 1107.855469 1009.703125 1106.605469 1010.121094 C 1105.644531 1010.441406 1104.621094 1010.617188 1103.554688 1010.617188 C 1102.488281 1010.617188 1101.464844 1010.441406 1100.507812 1010.121094 C 1099.257812 1009.707031 1098.121094 1009.042969 1097.15625 1008.1875 C 1095.628906 1006.828125 1094.535156 1004.988281 1094.113281 1002.90625 C 1093.980469 1002.28125 1093.917969 1001.632812 1093.917969 1000.972656 C 1093.917969 1000.308594 1093.980469 999.664062 1094.109375 999.039062 C 1094.535156 996.957031 1095.628906 995.121094 1097.15625 993.761719 C 1098.121094 992.90625 1099.257812 992.238281 1100.507812 991.824219 C 1101.464844 991.503906 1102.488281 991.332031 1103.554688 991.332031 C 1104.621094 991.332031 1105.644531 991.503906 1106.605469 991.824219 C 1107.855469 992.242188 1108.988281 992.90625 1109.949219 993.757812 C 1111.480469 995.121094 1112.578125 996.957031 1113 999.039062 C 1113.128906 999.664062 1113.195312 1000.308594 1113.195312 1000.972656 Z M 1113.195312 1000.972656 " fill-opacity="1" fill-rule="nonzero"/><path fill="#ffffff" d="M 754.875 1155.125 C 717.015625 1155.125 686.320312 1185.828125 686.320312 1223.703125 C 686.320312 1261.582031 717.015625 1292.285156 754.875 1292.285156 C 792.742188 1292.285156 823.4375 1261.582031 823.4375 1223.703125 C 823.4375 1185.828125 792.742188 1155.125 754.875 1155.125 Z M 788.515625 1230.527344 L 788.472656 1230.5625 L 744.773438 1257.21875 C 743.351562 1258.207031 741.742188 1258.707031 740.113281 1258.707031 C 738.816406 1258.707031 737.515625 1258.390625 736.289062 1257.746094 C 733.523438 1256.296875 731.875 1253.574219 731.882812 1250.445312 L 731.96875 1196.976562 C 731.976562 1193.855469 733.632812 1191.128906 736.40625 1189.6875 C 739.164062 1188.261719 742.335938 1188.464844 744.882812 1190.246094 L 788.515625 1217.042969 C 790 1218.035156 791.15625 1219.484375 791.65625 1221.203125 C 792.738281 1224.90625 791.441406 1228.488281 788.515625 1230.527344 Z M 788.515625 1230.527344 " fill-opacity="1" fill-rule="nonzero"/><path fill="#ffffff" d="M 994.917969 981 L 994.917969 1019.460938 C 994.917969 1021.308594 992.8125 1022.359375 991.335938 1021.253906 L 976.316406 1010.019531 L 966.125 1010.019531 C 964.351562 1010.019531 962.914062 1008.582031 962.914062 1006.808594 L 962.914062 993.652344 C 962.914062 991.875 964.351562 990.4375 966.125 990.4375 L 976.316406 990.4375 L 991.335938 979.203125 C 992.8125 978.097656 994.917969 979.152344 994.917969 981 Z M 994.917969 981 " fill-opacity="1" fill-rule="nonzero"/><path fill="#ffffff" d="M 1003.109375 1011.550781 C 1002.507812 1011.550781 1001.902344 1011.320312 1001.445312 1010.859375 C 1000.523438 1009.941406 1000.527344 1008.449219 1001.445312 1007.527344 C 1005.472656 1003.503906 1005.480469 996.953125 1001.460938 992.929688 C 1000.539062 992.007812 1000.539062 990.515625 1001.460938 989.597656 C 1002.378906 988.679688 1003.871094 988.679688 1004.792969 989.597656 C 1010.648438 995.460938 1010.640625 1005 1004.773438 1010.859375 C 1004.316406 1011.320312 1003.710938 1011.550781 1003.109375 1011.550781 Z M 1003.109375 1011.550781 " fill-opacity="1" fill-rule="nonzero"/><path fill="#ffffff" d="M 1011.023438 1020.398438 C 1010.421875 1020.398438 1009.820312 1020.167969 1009.359375 1019.707031 C 1008.4375 1018.789062 1008.441406 1017.296875 1009.359375 1016.375 C 1018.269531 1007.472656 1018.28125 992.984375 1009.390625 984.082031 C 1008.46875 983.160156 1008.46875 981.667969 1009.390625 980.75 C 1010.3125 979.832031 1011.800781 979.832031 1012.722656 980.75 C 1023.449219 991.492188 1023.433594 1008.96875 1012.691406 1019.710938 C 1012.230469 1020.167969 1011.628906 1020.398438 1011.023438 1020.398438 Z M 1011.023438 1020.398438 " fill-opacity="1" fill-rule="nonzero"/><path fill="#ffffff" d="M 1099.089844 1238.652344 L 1088.480469 1245.667969 C 1087.589844 1246.257812 1086.398438 1245.621094 1086.394531 1244.550781 L 1086.382812 1240.652344 C 1082.15625 1240.488281 1078.09375 1239.152344 1074.582031 1236.761719 C 1072.535156 1235.367188 1070.753906 1233.667969 1069.285156 1231.722656 C 1067.820312 1233.667969 1066.035156 1235.367188 1063.988281 1236.761719 C 1060.234375 1239.316406 1055.855469 1240.667969 1051.316406 1240.667969 L 1050.863281 1240.667969 C 1049.148438 1240.667969 1047.757812 1239.277344 1047.757812 1237.5625 C 1047.757812 1235.847656 1049.148438 1234.457031 1050.863281 1234.457031 L 1051.316406 1234.457031 C 1054.605469 1234.457031 1057.777344 1233.480469 1060.496094 1231.628906 C 1062.820312 1230.046875 1064.671875 1227.921875 1065.914062 1225.425781 C 1064.691406 1222.5 1062.667969 1220.015625 1060.042969 1218.230469 C 1057.324219 1216.378906 1054.148438 1215.402344 1050.863281 1215.402344 C 1049.148438 1215.402344 1047.757812 1214.011719 1047.757812 1212.296875 C 1047.757812 1210.582031 1049.148438 1209.191406 1050.863281 1209.191406 C 1055.402344 1209.191406 1059.78125 1210.539062 1063.535156 1213.09375 C 1065.796875 1214.636719 1067.738281 1216.550781 1069.285156 1218.753906 C 1070.832031 1216.550781 1072.773438 1214.636719 1075.035156 1213.09375 C 1078.414062 1210.792969 1082.308594 1209.46875 1086.363281 1209.230469 L 1086.351562 1205.121094 C 1086.347656 1204.050781 1087.535156 1203.40625 1088.429688 1203.992188 L 1099.085938 1210.945312 C 1099.894531 1211.472656 1099.898438 1212.65625 1099.089844 1213.191406 L 1088.480469 1220.207031 C 1087.589844 1220.796875 1086.398438 1220.160156 1086.394531 1219.09375 L 1086.382812 1215.453125 C 1083.574219 1215.679688 1080.878906 1216.628906 1078.53125 1218.226562 C 1075.902344 1220.015625 1073.878906 1222.5 1072.65625 1225.425781 C 1073.898438 1227.921875 1075.75 1230.046875 1078.074219 1231.628906 C 1080.546875 1233.3125 1083.394531 1234.273438 1086.363281 1234.433594 L 1086.351562 1230.578125 C 1086.347656 1229.511719 1087.535156 1228.867188 1088.429688 1229.449219 L 1099.085938 1236.40625 C 1099.894531 1236.933594 1099.898438 1238.117188 1099.089844 1238.652344 Z M 1099.089844 1238.652344 " fill-opacity="1" fill-rule="nonzero"/><path fill="#ffffff" d="M 461.011719 1211.316406 L 451.769531 1217.433594 C 450.992188 1217.949219 449.953125 1217.390625 449.949219 1216.460938 L 449.941406 1213.292969 L 430.171875 1213.292969 C 423.1875 1213.292969 416.871094 1217.457031 414.121094 1223.882812 C 413.632812 1225.027344 412.15625 1225.339844 411.25 1224.484375 L 410.292969 1223.589844 C 409.425781 1222.78125 409.191406 1221.503906 409.703125 1220.4375 L 409.828125 1220.171875 C 413.445312 1212.648438 421.050781 1207.867188 429.394531 1207.867188 L 449.925781 1207.867188 L 449.914062 1204.285156 C 449.910156 1203.355469 450.945312 1202.789062 451.722656 1203.300781 L 461.007812 1209.359375 C 461.714844 1209.820312 461.714844 1210.851562 461.011719 1211.316406 Z M 461.011719 1211.316406 " fill-opacity="1" fill-rule="nonzero"/><path fill="#ffffff" d="M 460.679688 1229.820312 L 460.550781 1230.082031 C 456.933594 1237.605469 449.328125 1242.390625 440.984375 1242.390625 L 420.457031 1242.390625 L 420.464844 1245.972656 C 420.46875 1246.902344 419.433594 1247.464844 418.65625 1246.957031 L 409.371094 1240.894531 C 408.664062 1240.4375 408.664062 1239.40625 409.367188 1238.9375 L 418.609375 1232.824219 C 419.390625 1232.3125 420.425781 1232.867188 420.429688 1233.792969 L 420.441406 1236.96875 L 440.207031 1236.96875 C 447.191406 1236.96875 453.507812 1232.800781 456.257812 1226.375 C 456.746094 1225.230469 458.222656 1224.917969 459.128906 1225.769531 L 460.085938 1226.664062 C 460.953125 1227.476562 461.191406 1228.753906 460.679688 1229.824219 Z M 460.679688 1229.820312 " fill-opacity="1" fill-rule="nonzero"/></svg>